<svg width="40" height="40" viewBox="0 0 40 40" fill="none" xmlns="http://www.w3.org/2000/svg">
<path d="M20.0001 40.0002C31.0458 40.0002 40.0001 31.0459 40.0001 20.0002C40.0001 8.95455 31.0458 0.000244141 20.0001 0.000244141C8.95443 0.000244141 0.00012207 8.95455 0.00012207 20.0002C0.00012207 31.0459 8.95443 40.0002 20.0001 40.0002Z" fill="white"/>
<path d="M20.2419 32.073C17.1096 32.073 14.1055 30.8287 11.8906 28.6138C9.67572 26.3988 8.4314 23.3948 8.4314 20.2624C8.4314 17.1301 9.67572 14.126 11.8906 11.9111C14.1055 9.69623 17.1096 8.4519 20.2419 8.4519" fill="#5061FF"/>
<path d="M20.2419 32.073C17.1096 32.073 14.1055 30.8287 11.8906 28.6138C9.67572 26.3988 8.4314 23.3948 8.4314 20.2624C8.4314 17.1301 9.67572 14.126 11.8906 11.9111C14.1055 9.69623 17.1096 8.4519 20.2419 8.4519" fill="#5061FF"/>
<path d="M20.382 32.1189C17.2497 32.1189 14.2456 30.8746 12.0307 28.6596C9.81582 26.4447 8.5715 23.4407 8.5715 20.3083C8.5715 17.176 9.81582 14.1719 12.0307 11.957C14.2456 9.74212 17.2497 8.4978 20.382 8.4978" fill="#5061FF"/>
<path d="M26.3803 20.3134C26.3803 19.6297 26.652 18.974 27.1354 18.4905C27.6189 18.007 28.2747 17.7354 28.9584 17.7354H31.782C31.4323 16.131 30.75 14.6179 29.7791 13.2936L27.606 15.4667C27.1211 15.9439 26.4672 16.2101 25.7868 16.2074C25.1064 16.2047 24.4546 15.9332 23.9735 15.4521C23.4924 14.9709 23.2208 14.3192 23.2181 13.6388C23.2154 12.9584 23.4816 12.3044 23.9589 11.8195L25.8922 9.88618C24.1595 8.94112 22.2167 8.44746 20.2431 8.4507H19.5471C19.5368 8.4507 19.527 8.45477 19.5197 8.46202C19.5125 8.46928 19.5084 8.47911 19.5084 8.48937V13.08H20.2431V16.6875L18.8772 18.0505L20.2431 19.4135V32.0766C22.1911 32.0796 24.1093 31.5986 25.8255 30.6769L23.9598 28.8113C23.4907 28.3247 23.2314 27.6734 23.2376 26.9975C23.2438 26.3216 23.5151 25.6752 23.9931 25.1974C24.4711 24.7195 25.1176 24.4484 25.7935 24.4423C26.4693 24.4363 27.1206 24.6958 27.607 25.1651L29.7336 27.2917C30.706 25.9818 31.3953 24.484 31.7578 22.8934H28.9545C28.2712 22.8921 27.6163 22.6197 27.1337 22.136C26.651 21.6523 26.3801 20.9968 26.3803 20.3134Z" fill="#FF8B2C"/>
<path d="M26.5205 20.3601C26.5205 19.6763 26.7921 19.0206 27.2756 18.5371C27.759 18.0536 28.4148 17.782 29.0985 17.782H31.9221C31.5724 16.1777 30.8901 14.6645 29.9192 13.3402L27.7462 15.5133C27.2612 15.9905 26.6073 16.2568 25.9269 16.254C25.2465 16.2513 24.5947 15.9798 24.1136 15.4987C23.6325 15.0176 23.361 14.3658 23.3583 13.6854C23.3555 13.005 23.6218 12.3511 24.099 11.8661L26.0323 9.93281C24.2996 8.98775 22.3569 8.49409 20.3832 8.49733H19.6872C19.677 8.49733 19.6671 8.5014 19.6599 8.50866C19.6526 8.51591 19.6486 8.52574 19.6486 8.536V13.1266H20.3832V16.7342L19.0173 18.0971L20.3832 19.4601V32.1232C22.3312 32.1263 24.2495 31.6453 25.9656 30.7235L24.1 28.8579C23.6309 28.3713 23.3715 27.72 23.3778 27.0441C23.384 26.3683 23.6553 25.7219 24.1333 25.244C24.6113 24.7661 25.2577 24.495 25.9336 24.489C26.6095 24.4829 27.2607 24.7424 27.7472 25.2117L29.8738 27.3383C30.8461 26.0284 31.5355 24.5306 31.898 22.9401H29.0947C28.4113 22.9388 27.7564 22.6664 27.2738 22.1826C26.7912 21.6989 26.5202 21.0434 26.5205 20.3601Z" fill="#FF8B2C"/>
<path d="M20.2416 31.768V22.4756L15.5842 27.1213L20.2416 31.768Z" fill="#FF8B2C"/>
<path d="M20.2447 30.7357L21.5294 32.0203C20.6114 32.1201 19.6849 32.1126 18.7687 31.9981C18.6015 31.9757 18.4465 31.8985 18.3279 31.7787L14.0408 27.4926C13.9946 27.4464 13.958 27.3916 13.933 27.3313C13.9081 27.2711 13.8952 27.2064 13.8952 27.1412C13.8952 27.0759 13.9081 27.0113 13.933 26.951C13.958 26.8907 13.9946 26.8359 14.0408 26.7898L19.1022 21.7274C19.1954 21.6341 19.2478 21.5075 19.2478 21.3756C19.2478 21.2436 19.1954 21.1171 19.1022 21.0237L16.4593 18.3819C16.3664 18.2886 16.3142 18.1622 16.3142 18.0305C16.3142 17.8988 16.3664 17.7724 16.4593 17.6791L19.0693 15.0692C19.1626 14.9758 19.2149 14.8493 19.2149 14.7173C19.2149 14.5853 19.1626 14.4588 19.0693 14.3654L17.6657 12.9628C17.5723 12.8695 17.5198 12.743 17.5197 12.611V9.15132C17.5208 9.0372 17.5611 8.92692 17.6337 8.83893C17.7064 8.75094 17.8071 8.69059 17.919 8.668C18.478 8.55654 19.0443 8.48578 19.6135 8.4563V11.7526C19.6134 11.818 19.6263 11.8827 19.6514 11.9431C19.6764 12.0035 19.7132 12.0583 19.7595 12.1044L20.2476 12.5926L22.0292 14.3741C22.1224 14.4675 22.1748 14.594 22.1748 14.726C22.1748 14.858 22.1224 14.9845 22.0292 15.0779L19.4192 17.6878C19.3731 17.734 19.3365 17.7887 19.3115 17.849C19.2865 17.9093 19.2736 17.9739 19.2736 18.0392C19.2736 18.1045 19.2865 18.1691 19.3115 18.2294C19.3365 18.2897 19.3731 18.3444 19.4192 18.3906L20.2438 19.2161L22.062 21.0324C22.1553 21.1258 22.2077 21.2523 22.2077 21.3843C22.2077 21.5162 22.1553 21.6428 22.062 21.7361L20.2438 23.5535L17.0007 26.7985C16.9545 26.8446 16.9179 26.8994 16.8929 26.9597C16.8679 27.02 16.8551 27.0846 16.8551 27.1499C16.8551 27.2151 16.8679 27.2798 16.8929 27.34C16.9179 27.4003 16.9545 27.4551 17.0007 27.5012L20.2447 30.7357Z" fill="white"/>
<path d="M20.3844 30.782L21.6691 32.0667C20.7511 32.1664 19.8246 32.159 18.9083 32.0445C18.7412 32.0221 18.5861 31.9449 18.4675 31.8251L14.1804 27.5389C14.1343 27.4928 14.0977 27.438 14.0727 27.3777C14.0477 27.3174 14.0349 27.2528 14.0349 27.1876C14.0349 27.1223 14.0477 27.0577 14.0727 26.9974C14.0977 26.9371 14.1343 26.8823 14.1804 26.8362L19.2418 21.7738C19.3351 21.6805 19.3875 21.5539 19.3875 21.422C19.3875 21.29 19.3351 21.1635 19.2418 21.0701L16.599 18.4283C16.506 18.3349 16.4538 18.2086 16.4538 18.0769C16.4538 17.9452 16.506 17.8188 16.599 17.7255L19.2089 15.1155C19.3022 15.0222 19.3546 14.8956 19.3546 14.7637C19.3546 14.6317 19.3022 14.5052 19.2089 14.4118L17.8054 13.0092C17.712 12.9159 17.6595 12.7894 17.6594 12.6574V9.19771C17.6605 9.08359 17.7007 8.9733 17.7734 8.88532C17.8461 8.79733 17.9468 8.73698 18.0586 8.71438C18.6176 8.60292 19.1839 8.53217 19.7532 8.50269V11.799C19.7531 11.8643 19.766 11.9291 19.791 11.9895C19.8161 12.0499 19.8528 12.1047 19.8991 12.1508L20.3873 12.639L22.1688 14.4205C22.2621 14.5139 22.3145 14.6404 22.3145 14.7724C22.3145 14.9043 22.2621 15.0309 22.1688 15.1242L19.5589 17.7342C19.5127 17.7803 19.4761 17.8351 19.4511 17.8954C19.4261 17.9557 19.4133 18.0203 19.4133 18.0856C19.4133 18.1508 19.4261 18.2155 19.4511 18.2757C19.4761 18.336 19.5127 18.3908 19.5589 18.437L20.3834 19.2625L22.2017 21.0788C22.295 21.1722 22.3473 21.2987 22.3473 21.4307C22.3473 21.5626 22.295 21.6892 22.2017 21.7825L20.3834 23.5998L17.1403 26.8449C17.0942 26.891 17.0575 26.9458 17.0326 27.0061C17.0076 27.0664 16.9947 27.131 16.9947 27.1963C16.9947 27.2615 17.0076 27.3261 17.0326 27.3864C17.0575 27.4467 17.0942 27.5015 17.1403 27.5476L20.3844 30.782Z" fill="white"/>
<path d="M34.9965 20.271C34.9987 23.2098 34.1331 26.084 32.5083 28.5328C30.8834 30.9817 28.5717 32.8963 25.863 34.0365C23.1543 35.1767 20.1692 35.4917 17.2822 34.942C14.3951 34.3923 11.7347 33.0024 9.63448 30.9466C6.83567 28.1473 5.26352 24.3508 5.26389 20.3923C5.26425 16.4339 6.83709 12.6377 9.63642 9.83886C12.4357 7.04005 16.2322 5.4679 20.1907 5.46826C24.1492 5.46862 27.9454 7.04147 30.7442 9.84079C33.4723 12.6268 34.999 16.3716 34.9965 20.271ZM34.9965 20.271C34.9971 18.3453 34.6126 16.4391 33.8656 14.6643C33.1185 12.8895 32.0241 11.282 30.6466 9.93649C28.5966 7.93484 25.9974 6.58847 23.1797 6.06878C20.3621 5.54908 17.4536 5.87957 14.8244 7.01817C13.9629 7.38956 13.1401 7.84513 12.3682 8.37825C11.5994 8.91168 10.8822 9.5159 10.2261 10.183C9.57264 10.8512 8.986 11.5816 8.4745 12.3638C7.96518 13.1439 7.53083 13.9706 7.17726 14.8326C6.46957 16.5591 6.10828 18.4079 6.11394 20.2739C6.11214 23.6082 7.26425 26.8404 9.37469 29.4219C11.4851 32.0033 14.4239 33.7749 17.692 34.4359C20.9602 35.0969 24.3564 34.6065 27.3041 33.0481C30.2519 31.4897 32.5695 28.9592 33.8636 25.8862C34.606 24.1069 34.9909 22.1989 34.9965 20.271Z" fill="#B7B7B7"/>
<path d="M5.63078 21.8116C6.85761 21.8116 7.85215 20.8171 7.85215 19.5903C7.85215 18.3634 6.85761 17.3689 5.63078 17.3689C4.40396 17.3689 3.40942 18.3634 3.40942 19.5903C3.40942 20.8171 4.40396 21.8116 5.63078 21.8116Z" fill="#515151"/>
</svg>
